<svg viewBox="0 0 256 256" xmlns="http://www.w3.org/2000/svg"><desc>Created by http://guilds.gw2w2w.com</desc><path fill="none" d="M0 0h256v256H0z"/><path fill="#87000a" d="M106.07 37.07c4.85-2.12 10.11-3.22 15.34-3.89-3.4 2.55-7.92 3.24-10.96 6.33-3.44 3.56-8.28 5.67-10.91 10.04-2.67 3.62-3.17 8.91-7.49 11.14-2.31 6.79.03 13.98 2.18 20.49 5.61.46 11.49-.37 16.1-3.83 4.49-3.42 9.09-6.82 12.98-10.93 1.48-4.35 1.91-8.98 3.27-13.37l.05 1.45c.06 19.52.05 39.04-.01 58.56-3.22 1.15-6.07 3.34-6.58 6.93-17.57.05-35.15.09-52.73-.02 4.6-3.91 9.08-7.98 12.98-12.61 3.89-4.04 6.83-8.91 11-12.7-.53 2.88-2.17 5.49-2.34 8.42.87 4.32 3.6 8.27 7.05 10.97 5.75 3.31 13.05.58 16.86-4.43-5.27-4.54-11.28-8.37-15.48-14.01-2.15-3.31-3.4-7.1-5.39-10.5-2.43-1.22-4.36-3.19-6.69-4.55-1.8-1.12-3.93-.03-5.81.24-4.63-5.66-9.68-12.59-7.74-20.34 1.22 3.59 1.79 7.54 4.29 10.55 3.35 4.82 8.59 7.89 14.12 9.55-1.69-5.69-3.4-11.59-2.7-17.59.67-5.74 4.17-10.59 7.53-15.08 3.26-3.99 6.53-8.22 11.08-10.82M95.11 84.76c2.5 5.78 6.8 10.59 11.28 14.92 3.24 3.26 8.15 4.35 12.57 3.55 3.09-.61 6.06-4.3 4.26-7.37-1.99-4.38-3.2-10.05-7.97-12.25-6.73-.95-13.5.02-20.14 1.15zM133.71 119.42c16.84-.2 33.69-.06 50.54-.05.82.18 2.47.56 3.29.74-8.38 6.92-16.48 14.37-22.75 23.31-.34-3.68.06-7.48-.86-11.07-2.77-4.53-7.17-9.15-12.95-8.85-4.37-.77-8.96 1.5-11.1 5.35-1.55 2.45.5 5.19 1.07 7.65-1.3-.2-2.59-.39-3.89-.58-2.34 1.8-5.02 3.22-6.96 5.49-.97 3.96-.23 8.9 3.23 11.51 3 .78 4.66-2.79 6.73-4.35-.02 2.85-.01 5.7-.02 8.55 4.32.38 8.64-.2 12.55-2.14-5.16 4.38-10.77 8.28-15.34 13.29-1.36 1.33-1.65 3.24-1.97 5.02-1.31 8.04-2.56 16.08-3.8 24.14-1.38 8.64-1.86 17.39-3.43 26.01-.14-32.43-.09-64.85-.04-97.27 3.13-.97 4.7-3.85 5.7-6.75z"/><path fill="#bdbab9" d="M136.15 34.12c8.49.01 17.05 3.94 22.51 10.45 1.92 4 4.08 7.89 5.89 11.94 1.58 7.14 2.46 14.43 3.31 21.69 3.6-2.73 7.72-5.12 9.99-9.19 2.26-3.52 3.07-7.7 3.15-11.82 1.33 7.27 2.44 15.71-1.66 22.32-.89-.9-1.78-1.79-2.67-2.68-2.56-.23-4.22 1.3-5.02 3.58-1.47.57-2.93 1.15-4.4 1.72-2.64 5.38-5.22 11.09-9.63 15.26-2.81 1.54-4.4 4.29-6.19 6.81-3.22 2.8-7.22 4.76-9.64 8.42 3.15 2.77 7.06 4.45 11.31 4.29 1.62-2.1 4.46-2.57 6.2-4.56 3.19-3.34 6.75-6.91 7.41-11.71 5.57 6.95 12.33 12.83 19.02 18.68l-1.48.05c-16.85-.01-33.7-.15-50.54.05-1.27-3.18-3.84-5.38-7.09-6.36.06-19.52.07-39.04.01-58.56 1.76 3.74 2.98 7.72 4.36 11.62 1.44 3.59 4.75 5.88 7.26 8.68 2.41 2.14 4.37 5.34 7.86 5.72 5.54.64 11.31 1.21 16.77-.26-.15-7.3 2.19-15.52-2.44-21.93-1.79-2.35-.76-5.8-2.99-7.9-4.14-4.84-8.84-9.52-14.86-11.89-2.51-.89-4.6-2.55-6.44-4.42m-4.04 59.1c-1.77 4.06.86 8.99 4.89 10.46 3.73.09 7.16-1.53 10.73-2.34 4.1-.83 6.61-4.52 8.41-7.99 5.01-.08 5.45-6.07 6.66-9.69-2.69.5-5.29 1.45-8 1.85-4.79-.05-9.24-1.95-13.72-3.41-3.98 2.79-6.55 7.01-8.97 11.12zM66.48 119.96l.83.01c17.58.11 35.16.07 52.73.02.7 3.73 4.24 6.29 7.97 6.18-.05 32.42-.1 64.84.04 97.27-.01.26-.02.8-.02 1.07-1.04-4.78-1.78-9.61-2.31-14.46-1.92-13.51-4.89-26.86-7.64-40.21-3.84-6.34-11.07-9.54-16.31-14.56 3.64 1.6 7.36 3.34 11.45 3.16-1.44-3.63-1.9-7.53-1.22-11.39 1.37 2.42 2.65 4.94 4.85 6.75 4.47-1.42 6.12-6.7 5.12-10.92-.46-3.13-2.58-5.68-4.83-7.76-2.34.26-4.65.75-6.99.99.9-2.99 2.37-6.64.2-9.43-1.8-2.7-5.4-2.88-8.34-2.9-5.1.73-10.1 3.27-13.31 7.34-.6 5.4 1.99 10.29 4.29 14.96-3.88-3.2-6.56-7.54-10.06-11.12-4.85-5.67-10.95-10.03-16.45-15z"/></svg>